<?xml version="1.0" standalone="no"?>
<!DOCTYPE svg PUBLIC "-//W3C//DTD SVG 20010904//EN"
 "http://www.w3.org/TR/2001/REC-SVG-20010904/DTD/svg10.dtd">
<svg version="1.0" xmlns="http://www.w3.org/2000/svg"
 width="192.000000pt" height="192.000000pt" viewBox="0 0 192.000000 192.000000"
 preserveAspectRatio="xMidYMid meet">
<metadata>
Created by potrace 1.11, written by Peter Selinger 2001-2013
</metadata>
<g transform="translate(0.000000,192.000000) scale(0.100000,-0.100000)"
fill="#000000" stroke="none">
<path d="M1083 1674 c-3 -9 5 -27 22 -44 l27 -28 -26 -98 c-14 -55 -28 -115
-31 -134 -16 -88 -30 -107 -269 -340 l-98 -95 7 55 c9 71 12 76 65 103 60 30
60 53 1 49 l-44 -3 7 88 c4 48 12 106 17 128 24 89 23 103 -7 133 -29 29 -157
72 -171 58 -4 -3 5 -19 19 -34 40 -43 46 -62 42 -142 -5 -108 -14 -223 -19
-240 -5 -14 -108 -77 -190 -115 -100 -46 -150 -61 -183 -54 -18 3 -35 2 -38
-3 -15 -24 71 -78 125 -78 17 0 80 25 142 55 61 30 115 55 118 55 4 0 5 -37 3
-82 -5 -95 -19 -129 -87 -203 -76 -84 -205 -252 -205 -268 0 -9 17 -19 46 -26
82 -21 160 -69 248 -153 17 -15 33 -28 38 -28 16 0 28 42 34 117 3 43 10 81
15 84 6 3 31 7 56 8 95 3 247 59 370 135 28 18 44 23 49 15 6 -11 -16 -35 -83
-86 -42 -33 -47 -64 -5 -37 15 10 52 31 82 47 30 16 70 40 88 54 18 14 72 40
119 58 103 41 158 77 175 116 13 29 14 29 93 29 l81 0 0 50 c1 28 -3 50 -7 50
-5 0 -8 -3 -7 -7 2 -5 -3 -22 -10 -39 -16 -37 -29 -40 -172 -43 -52 -1 -115
-7 -139 -12 -69 -15 -76 6 -16 48 35 24 60 32 62 19 1 -5 7 -13 15 -17 9 -6
14 -1 18 19 5 26 7 27 78 27 41 0 76 -3 78 -7 3 -5 -27 -8 -65 -8 -39 0 -71
-3 -71 -8 0 -4 24 -7 53 -7 81 1 99 -9 27 -16 l-65 -6 73 -1 73 -2 -3 33 c-3
32 -3 32 -65 35 -80 4 -82 17 -4 20 68 2 94 -14 89 -56 -2 -14 2 -27 8 -29 8
-3 10 103 9 374 -2 208 -3 384 -4 391 -1 10 -28 12 -113 10 l-113 -3 0 -67 c0
-100 -26 -114 -29 -14 0 30 -4 52 -8 49 -5 -2 -8 -104 -8 -227 l0 -223 -47
-11 c-27 -6 -56 -14 -65 -17 -14 -6 -18 -2 -18 14 0 15 11 26 39 37 64 26 92
86 51 112 -11 7 -46 15 -78 18 -31 4 -61 10 -66 14 -4 5 -22 0 -40 -11 -74
-45 -65 -6 40 157 35 56 64 107 64 113 0 30 -54 92 -108 125 -66 40 -80 43
-89 20z m461 -117 c3 3 6 3 6 -1 0 -3 -10 -11 -22 -16 l-23 -9 24 -7 c23 -7
23 -8 6 -14 -31 -11 -31 -110 1 -110 8 0 14 -6 14 -13 0 -7 11 -12 25 -12 31
2 46 15 17 15 -22 0 -24 4 -24 35 0 30 2 35 17 35 23 0 18 21 -6 27 -16 4 -17
8 -7 14 16 10 70 2 79 -13 11 -17 -1 -38 -22 -39 -10 -1 -25 -2 -31 -3 -7 0
-14 -11 -16 -23 -3 -20 1 -23 27 -23 21 0 31 5 31 15 0 8 4 15 9 15 13 0 6
-33 -8 -38 -8 -3 -9 -8 -2 -16 7 -8 4 -12 -11 -13 -22 -2 -40 -22 -32 -35 7
-12 44 -10 44 2 0 6 4 10 8 10 5 0 7 -26 6 -57 -2 -72 -1 -71 -17 -49 -13 17
-14 17 -30 1 -22 -21 -14 -35 21 -36 l27 -1 -30 -8 -30 -8 29 -1 c40 -1 22
-19 -24 -23 -31 -3 -34 -6 -34 -33 0 -28 3 -30 44 -36 43 -6 31 -13 -18 -11
-13 1 -22 -4 -20 -10 2 -6 18 -12 36 -13 35 -2 45 -8 48 -30 3 -19 -15 -32
-51 -38 l-30 -4 31 -2 c17 0 37 -7 43 -15 13 -15 5 -46 -13 -47 -62 -5 -96 -4
-96 3 0 4 23 8 50 8 38 0 50 4 50 15 0 8 -3 15 -7 16 -5 0 -16 2 -25 4 -10 2
-22 -4 -27 -12 -12 -22 -23 0 -15 32 3 14 11 25 18 24 33 -4 56 3 56 16 0 10
-10 15 -31 15 -19 0 -43 10 -61 25 -20 17 -24 25 -14 25 12 0 16 10 16 35 0
36 -9 41 -62 36 -10 -1 -18 3 -18 8 0 6 15 12 33 12 l32 2 -35 7 c-30 6 -31 8
-9 9 29 1 46 26 26 38 -21 13 -37 12 -37 -3 0 -9 -4 -13 -8 -10 -12 7 -12 116
0 116 5 0 7 -4 4 -9 -10 -16 23 -20 39 -5 19 20 11 34 -21 34 -13 0 -24 5 -24
11 0 7 10 9 25 7 14 -3 28 -1 31 3 3 5 -12 9 -33 10 -33 0 -35 1 -15 9 18 8
22 17 22 54 0 32 -5 48 -17 55 -17 10 -17 10 0 11 9 0 17 5 17 10 0 6 -7 10
-15 10 -8 0 -15 4 -15 9 0 13 32 19 51 10 9 -5 19 -5 23 -2z m113 -9 c3 -30
-37 -42 -83 -24 -8 3 -14 14 -14 24 0 15 8 18 48 18 39 0 48 -3 49 -18z m-180
-93 c-1 -19 -5 -35 -9 -35 -4 0 -8 16 -8 35 0 19 4 35 9 35 5 0 8 -16 8 -35z
m75 17 c3 -9 1 -26 -3 -37 -6 -15 -8 -11 -8 18 -1 40 4 48 11 19z m-107 -52
c-3 -6 -6 -40 -5 -78 3 -100 -1 -226 -6 -231 -12 -12 -15 18 -15 140 -1 183
-1 179 17 179 8 0 12 -5 9 -10z m-412 -267 c-2 -32 1 -65 7 -73 8 -13 16 -9
48 25 21 22 43 49 49 59 6 10 15 17 21 15 7 -2 -31 -59 -83 -127 -126 -162
-245 -338 -256 -376 -21 -72 19 -81 61 -14 38 61 309 306 323 292 3 -3 1 -20
-5 -37 -5 -18 -16 -59 -24 -92 -35 -147 -29 -138 -112 -188 -150 -90 -356
-173 -371 -149 -3 6 -5 57 -4 114 1 56 2 135 2 175 l1 72 108 118 c125 137
227 243 233 243 3 0 4 -26 2 -57z m496 -17 c13 -15 -4 -34 -26 -30 -35 5 -36
7 -8 14 23 6 25 8 8 9 -12 0 -25 6 -28 11 -9 15 41 12 54 -4z m121 9 c0 -2
-15 -9 -32 -14 l-33 -9 33 -1 c18 -1 31 -5 28 -10 -6 -9 -54 -7 -63 3 -14 14
9 36 37 36 16 0 30 -2 30 -5z m-241 -177 c1 -46 1 -47 -53 -77 -29 -17 -57
-31 -62 -31 -8 0 -10 81 -5 152 1 10 20 24 54 36 l52 20 6 -27 c4 -14 7 -47 8
-73z m35 28 c-5 -68 -24 -68 -24 0 0 34 3 64 7 68 11 11 20 -24 17 -68z m-265
11 c-24 -21 -57 -48 -73 -60 l-28 -20 11 20 c17 33 112 114 124 106 6 -4 -7
-22 -34 -46z m292 10 c-10 -9 -11 -8 -5 6 3 10 9 15 12 12 3 -3 0 -11 -7 -18z
m-171 -244 c0 -14 -15 -29 -32 -36 -19 -7 -22 1 -12 27 6 16 44 23 44 9z
m-716 -169 c-1 -47 -6 -90 -11 -94 -13 -12 -83 -20 -84 -9 -1 5 -2 15 -3 22
-4 25 75 167 93 167 4 0 7 -39 5 -86z"/>
<path d="M1620 1474 c0 -8 5 -12 10 -9 6 4 8 11 5 16 -9 14 -15 11 -15 -7z"/>
<path d="M1536 1335 c-4 -15 -16 -27 -31 -31 -30 -7 -35 -44 -7 -44 23 0 42
-19 42 -42 0 -32 38 -22 45 12 5 24 12 30 31 30 21 0 25 4 22 23 -2 12 -10 22
-18 22 -24 1 -40 15 -40 36 0 29 -36 25 -44 -6z"/>
<path d="M1553 1183 c9 -2 23 -2 30 0 6 3 -1 5 -18 5 -16 0 -22 -2 -12 -5z"/>
<path d="M1580 1540 c0 -5 14 -10 30 -10 17 0 30 5 30 10 0 6 -13 10 -30 10
-16 0 -30 -4 -30 -10z"/>
<path d="M1480 1640 c-12 -7 -10 -9 7 -7 12 0 19 5 17 9 -6 10 -6 10 -24 -2z"/>
<path d="M1540 1640 l-25 -8 25 -2 c84 -6 120 -5 120 2 0 4 -6 8 -12 8 -7 1
-29 2 -48 5 -19 2 -46 0 -60 -5z"/>
<path d="M1700 1390 c0 -18 4 -29 10 -25 6 3 10 15 10 25 0 10 -4 22 -10 25
-6 4 -10 -7 -10 -25z"/>
<path d="M1700 1289 c0 -24 4 -38 10 -34 6 3 10 22 10 41 0 19 -4 34 -10 34
-5 0 -10 -18 -10 -41z"/>
<path d="M1700 1069 c0 -97 4 -148 10 -144 6 4 10 65 10 151 0 89 -4 144 -10
144 -6 0 -10 -57 -10 -151z"/>
<path d="M1436 512 c-3 -5 9 -13 28 -16 48 -9 72 -39 60 -74 -7 -20 -31 -39
-89 -70 -87 -46 -115 -68 -76 -59 13 3 35 1 50 -5 14 -5 76 -10 138 -10 88 1
117 4 138 18 30 20 29 36 -11 120 -20 42 -34 57 -70 74 -49 24 -158 39 -168
22z"/>
<path d="M1040 375 c-94 -44 -133 -54 -145 -35 -3 5 -12 7 -19 4 -25 -10 1
-68 44 -97 45 -31 64 -22 147 68 77 84 93 105 76 105 -4 -1 -51 -21 -103 -45z"/>
</g>
</svg>
